/* XPM */
static const char * about_xpm[] = {
"32 32 86 1",
" 	c none",
".	c #C1C1C1",
"+	c #727272",
"@	c #383838",
"#	c #161616",
"$	c #050505",
"%	c #737373",
"&	c #C2C2C2",
"*	c #878787",
"=	c #151515",
"-	c #000000",
";	c #898989",
">	c #A9A9A9",
",	c #1B1B1B",
"'	c #1D1D1D",
")	c #ABABAB",
"!	c #7F7F7F",
"~	c #010101",
"{	c #777777",
"]	c #565656",
"^	c #575757",
"/	c #787878",
"(	c #7B7B7B",
"_	c #4D4D4D",
":	c #616161",
"<	c #ACACAC",
"[	c #0A0A0A",
"}	c #6D6D6D",
"|	c #D6D6D6",
"1	c #FFFFFF",
"2	c #D5D5D5",
"3	c #6C6C6C",
"4	c #868686",
"5	c #373737",
"6	c #DDDDDD",
"7	c #E1E1E1",
"8	c #3D3D3D",
"9	c #4F4F4F",
"0	c #FBFBFB",
"a	c #FAFAFA",
"b	c #171717",
"c	c #2F2F2F",
"d	c #F8F8F8",
"e	c #F7F7F7",
"f	c #2D2D2D",
"g	c #C3C3C3",
"h	c #C7C7C7",
"i	c #C5C5C5",
"j	c #747474",
"k	c #353535",
"l	c #323232",
"m	c #3A3A3A",
"n	c #818181",
"o	c #060606",
"p	c #A1A1A1",
"q	c #9F9F9F",
"r	c #070707",
"s	c #393939",
"t	c #3B3B3B",
"u	c #C4C4C4",
"v	c #757575",
"w	c #313131",
"x	c #F6F6F6",
"y	c #2C2C2C",
"z	c #909090",
"A	c #4B4B4B",
"B	c #AAAAAA",
"C	c #DCDCDC",
"D	c #8B8B8B",
"E	c #222222",
"F	c #B3B3B3",
"G	c #6E6E6E",
"H	c #C8C8C8",
"I	c #D3D3D3",
"J	c #696969",
"K	c #080808",
"L	c #1E1E1E",
"M	c #626262",
"N	c #2A2A2A",
"O	c #1F1F1F",
"P	c #666666",
"Q	c #AEAEAE",
"R	c #7A7A7A",
"S	c #7D7D7D",
"T	c #585858",
"U	c #8A8A8A",
"                                ",
"           .+@#$$#@%&           ",
"         *=----------#;         ",
"       >,--------------')       ",
"      !~----------------~{      ",
"     ]--------------------^     ",
"    /----------------------(    ",
"   >---------'_::_'--------~<   ",
"   ,------[}|11111123[------'   ",
"  4------56111111111178------;  ",
"  =-----90111111111111a_-----b  ",
" .-----cd11111111111111ef-----g ",
" +-----h1111111111111111i-----j ",
" 5----k111111111111111111l----m ",
" =----n111111111111111111!----b ",
" o----p111111111111111111q----r ",
" o----p111111111111111111q----r ",
" =----n111111111111111111!----b ",
" s----@111111111111111111l----t ",
" %-----i1111111111111111u-----v ",
" &-----wx11111111111111xy-----u ",
"  #-----z1111111111111aA-----b  ",
"  ;-----B111111111111C@------D  ",
"   '---Ex1FGH111111IJK------L   ",
"   )~--kMN---O9P:A,--------~Q   ",
"    R----------------------S    ",
"     ^--------------------T     ",
"      !~----------------~{      ",
"       <'--------------LQ       ",
"         Ub----------bD         ",
"           gjmboobmvu           ",
"                                "};
