/* XPM */
static const char * accept_xpm[] = {
"32 32 106 2",
"  	c none",
". 	c #A6A6A6",
"+ 	c #646464",
"@ 	c #353535",
"# 	c #151515",
"$ 	c #050505",
"% 	c #656565",
"& 	c #A7A7A7",
"* 	c #D9D9D9",
"= 	c #626262",
"- 	c #0A0A0A",
"; 	c #000000",
"> 	c #636363",
", 	c #DADADA",
"' 	c #737373",
") 	c #040404",
"! 	c #757575",
"~ 	c #2C2C2C",
"{ 	c #383838",
"] 	c #E6E6E6",
"^ 	c #CECECE",
"/ 	c #1C1C1C",
"( 	c #D1D1D1",
"_ 	c #E7E7E7",
": 	c #2F2F2F",
"< 	c #333333",
"[ 	c #343434",
"} 	c #A1A1A1",
"| 	c #7E7E7E",
"1 	c #060606",
"2 	c #5A5A5A",
"3 	c #C7C7C7",
"4 	c #FFFFFF",
"5 	c #0C0C0C",
"6 	c #191919",
"7 	c #808080",
"8 	c #696969",
"9 	c #373737",
"0 	c #FAFAFA",
"a 	c #0B0B0B",
"b 	c #C2C2C2",
"c 	c #A8A8A8",
"d 	c #A9A9A9",
"e 	c #F8F8F8",
"f 	c #E8E8E8",
"g 	c #666666",
"h 	c #878787",
"i 	c #EBEBEB",
"j 	c #404040",
"k 	c #363636",
"l 	c #F9F9F9",
"m 	c #858585",
"n 	c #141414",
"o 	c #CFCFCF",
"p 	c #1E1E1E",
"q 	c #2B2B2B",
"r 	c #EDEDED",
"s 	c #575757",
"t 	c #161616",
"u 	c #262626",
"v 	c #B8B8B8",
"w 	c #B2B2B2",
"x 	c #ABABAB",
"y 	c #292929",
"z 	c #242424",
"A 	c #070707",
"B 	c #DEDEDE",
"C 	c #C6C6C6",
"D 	c #010101",
"E 	c #6D6D6D",
"F 	c #DFDFDF",
"G 	c #999999",
"H 	c #FDFDFD",
"I 	c #555555",
"J 	c #E4E4E4",
"K 	c #989898",
"L 	c #3C3C3C",
"M 	c #454545",
"N 	c #1F1F1F",
"O 	c #393939",
"P 	c #F1F1F1",
"Q 	c #303030",
"R 	c #CCCCCC",
"S 	c #676767",
"T 	c #5B5B5B",
"U 	c #E5E5E5",
"V 	c #AAAAAA",
"W 	c #BEBEBE",
"X 	c #BBBBBB",
"Y 	c #171717",
"Z 	c #1B1B1B",
"` 	c #C5C5C5",
" .	c #C3C3C3",
"..	c #DDDDDD",
"+.	c #505050",
"@.	c #A4A4A4",
"#.	c #A3A3A3",
"$.	c #4F4F4F",
"%.	c #787878",
"&.	c #1D1D1D",
"*.	c #1A1A1A",
"=.	c #D2D2D2",
"-.	c #EEEEEE",
";.	c #3E3E3E",
">.	c #797979",
",.	c #686868",
"                      . + @ # $ $ # @ % &                       ",
"                * = - ; ; ; ; ; ; ; ; ; ; - > ,                 ",
"              ' ) ; ; ; ; ; ; ; ; ; ; ; ; ; ; $ !               ",
"          , ~ ; ; ; ; ; ; ; ; ; ; ; ; ; ; ; ; ; ; { ]           ",
"        ^ # ; ; ; ; ; ; ; ; ; ; ; ; ; ; ; ; ; ; ; ; / (         ",
"      , # ; ; ; ; ; ; ; ; ; ; ; ; ; ; ; ; ; ; ; ; ; ; / _       ",
"      : ; ; ; ; ; ; ; ; ; ; ; ; ; ; ; ; ; ; ; ; ; ; ; ; <       ",
"    ' ; ; ; ; ; ; ; ; ; ; ; [ } } [ ; ; ; ; ; ; ; ; ; ; ; |     ",
"  * ) ; ; ; ; ; ; ; ; 1 2 3 4 4 4 4 3 2 1 ; ; ; ; ; ; ; ; 5 _   ",
"  = ; ; ; ; ; ; ; 6 7 _ 4 4 4 4 4 4 4 4 _ 7 6 ; ; ; ; ; ; ; 8   ",
"  - ; ; ; ; ; 9 . 0 4 4 4 4 4 4 4 4 4 4 4 4 0 . 9 ; ; ; ; ; a   ",
". ; ; ; ; ; ; b 4 4 4 4 4 4 4 4 4 4 4 4 4 4 4 4 b ; ; ; ; ; ; c ",
"+ ; ; ; ; ; ; d 4 4 4 4 4 4 4 4 4 4 4 e f 4 4 4 c ; ; ; ; ; ; g ",
"@ ; ; ; ; ; ; h 4 4 4 4 4 4 4 4 4 4 i j k l 4 4 m ; ; ; ; ; ; 9 ",
"n ; ; ; ; ; ; 2 4 4 4 4 4 4 4 4 4 o p ; q r 4 4 s ; ; ; ; ; ; t ",
"1 ; ; ; ; ; ; u 4 4 4 4 v w 4 4 x a ; y f 4 4 4 z ; ; ; ; ; ; A ",
"1 ; ; ; ; ; ; ; B 4 4 C $ D E | D ; u ] 4 4 4 F ; ; ; ; ; ; ; A ",
"n ; ; ; ; ; ; ; G 4 4 H I ; ; ; ; z J 4 4 4 4 K ; ; ; ; ; ; ; t ",
"@ ; ; ; ; ; ; ; L 4 4 4 l M ; ; N F 4 4 4 4 4 O ; ; ; ; ; ; ; { ",
"% ; ; ; ; ; ; ; ; o 4 4 4 P Q p B 4 4 4 4 4 R ; ; ; ; ; ; ; ; S ",
"& ; ; ; ; ; ; ; ; T 4 4 4 4 U B 4 4 4 4 4 4 s ; ; ; ; ; ; ; ; V ",
"  - ; ; ; ; ; ; ; D W 4 4 4 4 4 4 4 4 4 4 X D ; ; ; ; ; ; ; a   ",
"  > ; ; ; ; ; ; ; ; Y F 4 4 4 4 4 4 4 4 B t ; ; ; ; ; ; ; ; %   ",
"  , $ ; ; ; ; ; ; ; ; Z ` 4 4 4 4 4 4  .6 ; ; ; ; ; ; ; ; 1 ..  ",
"    ! ; ; ; ; ; ; ; ; ; D +.@.3 3 #.$.D ; ; ; ; ; ; ; ; ; %.    ",
"      { ; ; ; ; ; ; ; ; ; ; ; ; ; ; ; ; ; ; ; ; ; ; ; ; O       ",
"      _ &.; ; ; ; ; ; ; ; ; ; ; ; ; ; ; ; ; ; ; ; ; ; *.J       ",
"        ( / ; ; ; ; ; ; ; ; ; ; ; ; ; ; ; ; ; ; ; ; &.=.        ",
"          -.;.; ; ; ; ; ; ; ; ; ; ; ; ; ; ; ; ; ; O _           ",
"              | a ; ; ; ; ; ; ; ; ; ; ; ; ; ; 1 >.              ",
"                _ 8 a ; ; ; ; ; ; ; ; ; ; a g ..                ",
"                      c S 9 t 1 1 t 9 ,.d                       "};
