/* XPM */
static const char * cancel_xpm[] = {
"32 32 123 2",
"  	c none",
". 	c #A6A6A6",
"+ 	c #646464",
"@ 	c #353535",
"# 	c #151515",
"$ 	c #050505",
"% 	c #656565",
"& 	c #A7A7A7",
"* 	c #626262",
"= 	c #0A0A0A",
"- 	c #000000",
"; 	c #636363",
"> 	c #737373",
", 	c #040404",
"' 	c #757575",
") 	c #2C2C2C",
"! 	c #383838",
"~ 	c #1C1C1C",
"{ 	c #020202",
"] 	c #272727",
"^ 	c #3F3F3F",
"/ 	c #262626",
"( 	c #202020",
"_ 	c #979797",
": 	c #E9E9E9",
"< 	c #FFFFFF",
"[ 	c #E8E8E8",
"} 	c #969696",
"| 	c #1F1F1F",
"1 	c #7E7E7E",
"2 	c #010101",
"3 	c #787878",
"4 	c #F8F8F8",
"5 	c #F5F5F5",
"6 	c #F4F4F4",
"7 	c #767676",
"8 	c #0C0C0C",
"9 	c #9E9E9E",
"0 	c #D7D7D7",
"a 	c #171717",
"b 	c #D5D5D5",
"c 	c #9C9C9C",
"d 	c #696969",
"e 	c #7B7B7B",
"f 	c #8C8C8C",
"g 	c #080808",
"h 	c #DCDCDC",
"i 	c #0B0B0B",
"j 	c #232323",
"k 	c #FAFAFA",
"l 	c #898989",
"m 	c #030303",
"n 	c #A1A1A1",
"o 	c #F9F9F9",
"p 	c #222222",
"q 	c #9D9D9D",
"r 	c #D4D4D4",
"s 	c #A3A3A3",
"t 	c #7D7D7D",
"u 	c #D2D2D2",
"v 	c #9B9B9B",
"w 	c #666666",
"x 	c #EEEEEE",
"y 	c #5E5E5E",
"z 	c #5D5D5D",
"A 	c #EDEDED",
"B 	c #141414",
"C 	c #2F2F2F",
"D 	c #FEFEFE",
"E 	c #111111",
"F 	c #121212",
"G 	c #2D2D2D",
"H 	c #161616",
"I 	c #060606",
"J 	c #4A4A4A",
"K 	c #ECECEC",
"L 	c #EAEAEA",
"M 	c #484848",
"N 	c #070707",
"O 	c #4B4B4B",
"P 	c #EBEBEB",
"Q 	c #313131",
"R 	c #FDFDFD",
"S 	c #0E0E0E",
"T 	c #0F0F0F",
"U 	c #303030",
"V 	c #EFEFEF",
"W 	c #565656",
"X 	c #595959",
"Y 	c #F0F0F0",
"Z 	c #A4A4A4",
"` 	c #CACACA",
" .	c #CDCDCD",
"..	c #A2A2A2",
"+.	c #676767",
"@.	c #2A2A2A",
"#.	c #FCFCFC",
"$.	c #808080",
"%.	c #FBFBFB",
"&.	c #282828",
"*.	c #878787",
"=.	c #7C7C7C",
"-.	c #858585",
";.	c #ADADAD",
">.	c #C6C6C6",
",.	c #4F4F4F",
"'.	c #090909",
").	c #535353",
"!.	c #CBCBCB",
"~.	c #ACACAC",
"{.	c #E0E0E0",
"].	c #E4E4E4",
"^.	c #A9A9A9",
"/.	c #A8A8A8",
"(.	c #393939",
"_.	c #525252",
":.	c #3A3A3A",
"<.	c #1D1D1D",
"[.	c #1A1A1A",
"}.	c #3E3E3E",
"|.	c #797979",
"1.	c #373737",
"2.	c #686868",
"                      . + @ # $ $ # @ % &                       ",
"                & * = - - - - - - - - - - = ; &                 ",
"              > , - - - - - - - - - - - - - - $ '               ",
"          & ) - - - - - - - - - - - - - - - - - - ! &           ",
"        & # - - - - - - - - - - - - - - - - - - - - ~ &         ",
"      & # - - - - - - - - - - - - - - - - - - - - - - ~ &       ",
"      ) - - - - - - - - - { ] ^ ^ / { - - - - - - - - - !       ",
"    > - - - - - - - - ( _ : < < < < [ } | - - - - - - - - 1     ",
"  & , - - - - - - 2 3 4 < < < 5 6 < < < 4 7 2 - - - - - - 8 &   ",
"  * - - - - - - 2 9 < < 0 ; a - - a * b < < c 2 - - - - - - d   ",
"  = - - - - - - e < < f , - - - - - - g h < < 3 - - - - - - i   ",
"& - - - - - - j k < l - - - - - - - m n < < < o p - - - - - - & ",
"+ - - - - - - q < r m - - - - - - m s < < t u < v - - - - - - w ",
"@ - - - - - $ x < y - - - - - - m s < < e - z < A , - - - - - ! ",
"B - - - - - C < D E - - - - - m s < < e - - F D < G - - - - - H ",
"I - - - - - J < K - - - - - m n < < t - - - - L < M - - - - - N ",
"I - - - - - O < : - - - - m s < < e - - - - - P < J - - - - - N ",
"B - - - - - Q < R S - - m s < < e - - - - - T D < U - - - - - H ",
"@ - - - - - $ V < W - m s < < e - - - - - - X < Y I - - - - - ! ",
"% - - - - - - Z < ` $ s < < t - - - - - - {  .< ..- - - - - - +.",
"& - - - - - - @.#.< b < < t - - - - - - - $.< %.&.- - - - - - & ",
"  = - - - - - - *.< < < =.- - - - - - 2 t D < -.- - - - - - i   ",
"  ; - - - - - - { ;.< < >.,.'.- - = ).!.< < ~.{ - - - - - - %   ",
"  & $ - - - - - - m l R < < k {.].%.< < #.*.{ - - - - - - I &   ",
"    ' - - - - - - - - G ^.6 < < < < 6 /.) - - - - - - - - 3     ",
"      ! - - - - - - - - - '.(._._.! g - - - - - - - - - :.      ",
"      & <.- - - - - - - - - - - - - - - - - - - - - - [.&       ",
"        & ~ - - - - - - - - - - - - - - - - - - - - <.&         ",
"          & }.- - - - - - - - - - - - - - - - - - (.&           ",
"              1 i - - - - - - - - - - - - - - I |.              ",
"                & d i - - - - - - - - - - i w &                 ",
"                      & +.1.H I I H 1.2.^.                      "};
