/* XPM */
static const char * deny_xpm[] = {
"32 32 96 2",
"  	c none",
". 	c #A6A6A6",
"+ 	c #646464",
"@ 	c #353535",
"# 	c #151515",
"$ 	c #050505",
"% 	c #656565",
"& 	c #A7A7A7",
"* 	c #D9D9D9",
"= 	c #626262",
"- 	c #0A0A0A",
"; 	c #000000",
"> 	c #636363",
", 	c #DADADA",
"' 	c #737373",
") 	c #040404",
"! 	c #757575",
"~ 	c #2C2C2C",
"{ 	c #383838",
"] 	c #E6E6E6",
"^ 	c #CECECE",
"/ 	c #1C1C1C",
"( 	c #D1D1D1",
"_ 	c #E7E7E7",
": 	c #2F2F2F",
"< 	c #333333",
"[ 	c #343434",
"} 	c #A1A1A1",
"| 	c #7E7E7E",
"1 	c #060606",
"2 	c #5A5A5A",
"3 	c #C7C7C7",
"4 	c #FFFFFF",
"5 	c #0C0C0C",
"6 	c #191919",
"7 	c #808080",
"8 	c #696969",
"9 	c #373737",
"0 	c #FAFAFA",
"a 	c #0B0B0B",
"b 	c #C2C2C2",
"c 	c #A8A8A8",
"d 	c #A9A9A9",
"e 	c #EBEBEB",
"f 	c #666666",
"g 	c #878787",
"h 	c #C6C6C6",
"i 	c #0F0F0F",
"j 	c #959595",
"k 	c #9C9C9C",
"l 	c #0D0D0D",
"m 	c #C0C0C0",
"n 	c #858585",
"o 	c #141414",
"p 	c #939393",
"q 	c #010101",
"r 	c #9A9A9A",
"s 	c #575757",
"t 	c #161616",
"u 	c #262626",
"v 	c #8F8F8F",
"w 	c #242424",
"x 	c #070707",
"y 	c #DEDEDE",
"z 	c #565656",
"A 	c #DFDFDF",
"B 	c #999999",
"C 	c #989898",
"D 	c #3C3C3C",
"E 	c #393939",
"F 	c #CFCFCF",
"G 	c #888888",
"H 	c #BCBCBC",
"I 	c #CCCCCC",
"J 	c #676767",
"K 	c #5B5B5B",
"L 	c #E4E4E4",
"M 	c #AAAAAA",
"N 	c #BEBEBE",
"O 	c #BBBBBB",
"P 	c #171717",
"Q 	c #1B1B1B",
"R 	c #C5C5C5",
"S 	c #C3C3C3",
"T 	c #DDDDDD",
"U 	c #505050",
"V 	c #A4A4A4",
"W 	c #A3A3A3",
"X 	c #4F4F4F",
"Y 	c #787878",
"Z 	c #1D1D1D",
"` 	c #1A1A1A",
" .	c #D2D2D2",
"..	c #3E3E3E",
"+.	c #797979",
"@.	c #686868",
"                      . + @ # $ $ # @ % &                       ",
"                * = - ; ; ; ; ; ; ; ; ; ; - > ,                 ",
"              ' ) ; ; ; ; ; ; ; ; ; ; ; ; ; ; $ !               ",
"          , ~ ; ; ; ; ; ; ; ; ; ; ; ; ; ; ; ; ; ; { ]           ",
"        ^ # ; ; ; ; ; ; ; ; ; ; ; ; ; ; ; ; ; ; ; ; / (         ",
"      , # ; ; ; ; ; ; ; ; ; ; ; ; ; ; ; ; ; ; ; ; ; ; / _       ",
"      : ; ; ; ; ; ; ; ; ; ; ; ; ; ; ; ; ; ; ; ; ; ; ; ; <       ",
"    ' ; ; ; ; ; ; ; ; ; ; ; [ } } [ ; ; ; ; ; ; ; ; ; ; ; |     ",
"  * ) ; ; ; ; ; ; ; ; 1 2 3 4 4 4 4 3 2 1 ; ; ; ; ; ; ; ; 5 _   ",
"  = ; ; ; ; ; ; ; 6 7 _ 4 4 4 4 4 4 4 4 _ 7 6 ; ; ; ; ; ; ; 8   ",
"  - ; ; ; ; ; 9 . 0 4 4 4 4 4 4 4 4 4 4 4 4 0 . 9 ; ; ; ; ; a   ",
". ; ; ; ; ; ; b 4 4 4 4 4 4 4 4 4 4 4 4 4 4 4 4 b ; ; ; ; ; ; c ",
"+ ; ; ; ; ; ; d 4 4 4 4 4 e 4 4 4 4 e 4 4 4 4 4 c ; ; ; ; ; ; f ",
"@ ; ; ; ; ; ; g 4 4 4 4 h i j 4 4 k l m 4 4 4 4 n ; ; ; ; ; ; 9 ",
"o ; ; ; ; ; ; 2 4 4 4 4 p ; q r r q ; p 4 4 4 4 s ; ; ; ; ; ; t ",
"1 ; ; ; ; ; ; u 4 4 4 4 4 v ; q q ; v 4 4 4 4 4 w ; ; ; ; ; ; x ",
"1 ; ; ; ; ; ; ; y 4 4 4 4 4 z ; ; z 4 4 4 4 4 A ; ; ; ; ; ; ; x ",
"o ; ; ; ; ; ; ; B 4 4 4 4 r q ; ; q r 4 4 4 4 C ; ; ; ; ; ; ; t ",
"@ ; ; ; ; ; ; ; D 4 4 4 k q ; v v ; q k 4 4 4 E ; ; ; ; ; ; ; { ",
"% ; ; ; ; ; ; ; ; F 4 4 b 5 G 4 4 v - H 4 4 I ; ; ; ; ; ; ; ; J ",
"& ; ; ; ; ; ; ; ; K 4 4 4 L 4 4 4 4 L 4 4 4 s ; ; ; ; ; ; ; ; M ",
"  - ; ; ; ; ; ; ; q N 4 4 4 4 4 4 4 4 4 4 O q ; ; ; ; ; ; ; a   ",
"  > ; ; ; ; ; ; ; ; P A 4 4 4 4 4 4 4 4 y t ; ; ; ; ; ; ; ; %   ",
"  , $ ; ; ; ; ; ; ; ; Q R 4 4 4 4 4 4 S 6 ; ; ; ; ; ; ; ; 1 T   ",
"    ! ; ; ; ; ; ; ; ; ; q U V 3 3 W X q ; ; ; ; ; ; ; ; ; Y     ",
"      { ; ; ; ; ; ; ; ; ; ; ; ; ; ; ; ; ; ; ; ; ; ; ; ; E       ",
"      _ Z ; ; ; ; ; ; ; ; ; ; ; ; ; ; ; ; ; ; ; ; ; ; ` L       ",
"        ( / ; ; ; ; ; ; ; ; ; ; ; ; ; ; ; ; ; ; ; ; Z  .        ",
"            ..; ; ; ; ; ; ; ; ; ; ; ; ; ; ; ; ; ; E _           ",
"              | a ; ; ; ; ; ; ; ; ; ; ; ; ; ; 1 +.              ",
"                _ 8 a ; ; ; ; ; ; ; ; ; ; a f T                 ",
"                      c J 9 t 1 1 t 9 @.d                       "};
