/* XPM */
static const char * open_xpm[] = {
"32 32 61 1",
" 	c none",
".	c #A5A5A5",
"+	c #656565",
"@	c #363636",
"#	c #131313",
"$	c #020202",
"%	c #A4A4A4",
"&	c #646464",
"*	c #000000",
"=	c #FCFCFC",
"-	c #6C6C6C",
";	c #6B6B6B",
">	c #EEEEEE",
",	c #151515",
"'	c #141414",
")	c #EAEAEA",
"!	c #E2E2E2",
"~	c #121212",
"{	c #010101",
"]	c #4F4F4F",
"^	c #FFFFFF",
"/	c #DEDEDE",
"(	c #E4E4E4",
"_	c #818181",
":	c #858585",
"<	c #8F8F8F",
"[	c #EDEDED",
"}	c #696969",
"|	c #6D6D6D",
"1	c #6E6E6E",
"2	c #606060",
"3	c #ABABAB",
"4	c #4B4B4B",
"5	c #E3E3E3",
"6	c #ADADAD",
"7	c #202020",
"8	c #4A4A4A",
"9	c #A0A0A0",
"0	c #3B3B3B",
"a	c #686868",
"b	c #939393",
"c	c #C2C2C2",
"d	c #B0B0B0",
"e	c #9C9C9C",
"f	c #EFEFEF",
"g	c #C4C4C4",
"h	c #797979",
"i	c #757575",
"j	c #5F5F5F",
"k	c #8D8D8D",
"l	c #FAFAFA",
"m	c #BBBBBB",
"n	c #767676",
"o	c #B3B3B3",
"p	c #6A6A6A",
"q	c #474747",
"r	c #D3D3D3",
"s	c #0B0B0B",
"t	c #C1C1C1",
"u	c #282828",
"v	c #030303",
"           .+@#$$#@+%           ",
"         &************&=        ",
"       -****************;       ",
"     >,******************')     ",
"    !$********************$!    ",
"   )$**********************$>   ",
"   '************************'   ",
"  ;**************************-  ",
"  *******~~~#{****************  ",
" &*****]^^^^^/$***************& ",
" ******^(_::<^[}|||||12******** ",
"%******^3****4^^^^^^^^^5*******.",
"+******^6*****744444489^0******+",
"@******^6**abbbbbbbbbbc^de*****@",
"#******^6**f^^^^^^^^^^^^^^*****#",
"$******^6**^^^^^^^^^^^^^^g*****$",
"$******^6*0^^^^^^^^^^^^^^h*****$",
"#******^6*i^^^^^^^^^^^^^^j*****'",
"@******^6*k^^^^^^^^^^^^^^******@",
"+******^6*f^^^^^^^^^^^^^l******+",
"%******^6*^^^^^^^^^^^^^^m******.",
" ******^6#^^^^^^^^^^^^^^n****** ",
" &*****^op^^^^^^^^^^^^^^q*****& ",
"  *****r^^^^^^^^^^^^^^^^******  ",
"  -****sectttttttttttc3u{****-  ",
"   ,************************,   ",
"   >v**********************$>   ",
"    !v********************$!    ",
"     >,******************,)     ",
"       -****************-       ",
"         &************&         ",
"           .+@#$$#@+%           "};
