/* XPM */
static const char * save_xpm[] = {
"32 32 53 1",
" 	c none",
".	c #A3A3A3",
"+	c #686868",
"@	c #323232",
"#	c #121212",
"$	c #020202",
"%	c #313131",
"&	c #5E5E5E",
"*	c #000000",
"=	c #6D6D6D",
"-	c #191919",
";	c #DFDFDF",
">	c #4C4C4C",
",	c #494949",
"'	c #080808",
")	c #FFFFFF",
"!	c #151515",
"~	c #0E0E0E",
"{	c #6C6C6C",
"]	c #BCBCBC",
"^	c #ADADAD",
"/	c #575757",
"(	c #010101",
"_	c #131313",
":	c #979797",
"<	c #5B5B5B",
"[	c #C9C9C9",
"}	c #B7B7B7",
"|	c #666666",
"1	c #898989",
"2	c #222222",
"3	c #383838",
"4	c #808080",
"5	c #969696",
"6	c #282828",
"7	c #A4A4A4",
"8	c #E3E3E3",
"9	c #7B7B7B",
"0	c #737373",
"a	c #E2E2E2",
"b	c #B8B8B8",
"c	c #7C7C7C",
"d	c #7F7F7F",
"e	c #5D5D5D",
"f	c #676767",
"g	c #B3B3B3",
"h	c #BABABA",
"i	c #1F1F1F",
"j	c #1A1A1A",
"k	c #5F5F5F",
"l	c #545454",
"m	c #5C5C5C",
"n	c #F3F3F3",
"           .+@#$$#%+.           ",
"         &************&         ",
"       =****************=       ",
"      -******************-      ",
"    ;**********************;    ",
"    ***********>,***********    ",
"   -**********'))$**********-   ",
"  =***********!))~***********{  ",
"  ************!))~************  ",
" &************!))~************& ",
" *************!))~************* ",
".**********>)]'))$^)/**********.",
"+******(_:*<))[))}))|*1_(******+",
"%******2))3*4))))))5*6))2******@",
"#******7)89**4)))):**0a)7******#",
"$******b)c****4)):****c)b******$",
"$******})d*****ef*****d)}******$",
"#******})d************d)}******#",
"%******})d************d)}******@",
"+******})d************d)}******+",
".******})d************d)}******.",
" ******})d************d)}****** ",
" &*****g)hijjjjjjjjjjih)g*****k ",
"  *****l))))))))))))))))l*****  ",
"  =*****mn))))))))))))nm*****=  ",
"   -************************-   ",
"    ************************    ",
"    ;**********************;    ",
"      -******************-      ",
"       =****************=       ",
"         k************k         ",
"           .+@#$$#@+.           "};
